<svg width="20" height="14" viewBox="0 0 20 14" fill="none" xmlns="http://www.w3.org/2000/svg">
                                            <path d="M5 14C3.62121 14 2.44318 13.5406 1.46591 12.6219C0.488636 11.7031 0 10.5802 0 9.25313C0 8.11562 0.356061 7.10208 1.06818 6.2125C1.7803 5.32292 2.71212 4.75417 3.86364 4.50625C4.24242 3.16458 5 2.07812 6.13636 1.24688C7.27273 0.415625 8.56061 0 10 0C11.7727 0 13.2765 0.594271 14.5114 1.78281C15.7462 2.97135 16.3636 4.41875 16.3636 6.125C17.4091 6.24167 18.2765 6.67552 18.9659 7.42656C19.6553 8.1776 20 9.05625 20 10.0625C20 11.1562 19.6023 12.0859 18.8068 12.8516C18.0114 13.6172 17.0455 14 15.9091 14H10.9091C10.4091 14 9.98106 13.8286 9.625 13.4859C9.26894 13.1432 9.09091 12.7312 9.09091 12.25V7.74375L7.63636 9.1L6.36364 7.875L10 4.375L13.6364 7.875L12.3636 9.1L10.9091 7.74375V12.25H15.9091C16.5455 12.25 17.0833 12.0385 17.5227 11.6156C17.9621 11.1927 18.1818 10.675 18.1818 10.0625C18.1818 9.45 17.9621 8.93229 17.5227 8.50938C17.0833 8.08646 16.5455 7.875 15.9091 7.875H14.5455V6.125C14.5455 4.91458 14.1023 3.88281 13.2159 3.02969C12.3295 2.17656 11.2576 1.75 10 1.75C8.74242 1.75 7.67045 2.17656 6.78409 3.02969C5.89773 3.88281 5.45455 4.91458 5.45455 6.125H5C4.12121 6.125 3.37121 6.42396 2.75 7.02188C2.12879 7.61979 1.81818 8.34167 1.81818 9.1875C1.81818 10.0333 2.12879 10.7552 2.75 11.3531C3.37121 11.951 4.12121 12.25 5 12.25H7.27273V14H5Z" fill="#666666"/>
                                            </svg> 