<svg width="8" height="13" viewBox="0 0 8 13" fill="none" xmlns="http://www.w3.org/2000/svg">
                                                    <path d="M4 13C2.82222 13 1.86111 12.8185 1.11667 12.4556C0.372222 12.0927 0 11.6242 0 11.05C0 10.6708 0.161111 10.3404 0.483333 10.0588C0.805556 9.77708 1.25 9.555 1.81667 9.3925L2.2 10.6275C2.01111 10.6817 1.83889 10.7494 1.68333 10.8306C1.52778 10.9119 1.42222 10.985 1.36667 11.05C1.51111 11.2233 1.84444 11.375 2.36667 11.505C2.88889 11.635 3.43333 11.7 4 11.7C4.56667 11.7 5.11389 11.635 5.64167 11.505C6.16945 11.375 6.50556 11.2233 6.65 11.05C6.59444 10.985 6.48889 10.9119 6.33333 10.8306C6.17778 10.7494 6.00556 10.6817 5.81667 10.6275L6.2 9.3925C6.76667 9.555 7.20833 9.77708 7.525 10.0588C7.84167 10.3404 8 10.6708 8 11.05C8 11.6242 7.62778 12.0927 6.88333 12.4556C6.13889 12.8185 5.17778 13 4 13ZM4 8.66125C4.2 8.30375 4.41111 7.97604 4.63333 7.67812C4.85556 7.38021 5.07222 7.09583 5.28333 6.825C5.69444 6.305 6.02222 5.83646 6.26667 5.41937C6.51111 5.00229 6.63333 4.485 6.63333 3.8675C6.63333 3.1525 6.37778 2.54583 5.86667 2.0475C5.35556 1.54917 4.73333 1.3 4 1.3C3.26667 1.3 2.64444 1.54917 2.13333 2.0475C1.62222 2.54583 1.36667 3.1525 1.36667 3.8675C1.36667 4.485 1.48889 5.00229 1.73333 5.41937C1.97778 5.83646 2.30556 6.305 2.71667 6.825C2.92778 7.09583 3.14444 7.38021 3.36667 7.67812C3.58889 7.97604 3.8 8.30375 4 8.66125ZM4 11.05C3.87778 11.05 3.76667 11.0148 3.66667 10.9444C3.56667 10.874 3.49444 10.7792 3.45 10.66C3.19444 9.89083 2.87222 9.24625 2.48333 8.72625C2.09444 8.20625 1.71667 7.70792 1.35 7.23125C0.994444 6.75458 0.686111 6.26167 0.425 5.7525C0.163889 5.24333 0.0333333 4.615 0.0333333 3.8675C0.0333333 2.78417 0.416667 1.86875 1.18333 1.12125C1.95 0.37375 2.88889 0 4 0C5.11111 0 6.05 0.37375 6.81667 1.12125C7.58333 1.86875 7.96667 2.78417 7.96667 3.8675C7.96667 4.615 7.83889 5.24333 7.58333 5.7525C7.32778 6.26167 7.01667 6.75458 6.65 7.23125C6.29445 7.70792 5.91945 8.20625 5.525 8.72625C5.13056 9.24625 4.80556 9.89083 4.55 10.66C4.50556 10.7792 4.43333 10.874 4.33333 10.9444C4.23333 11.0148 4.12222 11.05 4 11.05ZM4 5.24875C4.38889 5.24875 4.72222 5.11333 5 4.8425C5.27778 4.57167 5.41667 4.24667 5.41667 3.8675C5.41667 3.48833 5.27778 3.16333 5 2.8925C4.72222 2.62167 4.38889 2.48625 4 2.48625C3.61111 2.48625 3.27778 2.62167 3 2.8925C2.72222 3.16333 2.58333 3.48833 2.58333 3.8675C2.58333 4.24667 2.72222 4.57167 3 4.8425C3.27778 5.11333 3.61111 5.24875 4 5.24875Z" fill="#333333"/>
                                                    </svg>